# Blender v2.79 (sub 0) OBJ File: 'strip.blend'
# www.blender.org
mtllib strip.mtl
o Cylinder
v 0.000000 -32.000000 -81.487328
v 0.000000 32.000000 -81.487328
v 7.987155 -32.000000 -81.094940
v 7.987155 32.000000 -81.094940
v 15.897389 -32.000000 -79.921570
v 15.897389 32.000000 -79.921570
v 23.654522 -32.000000 -77.978516
v 23.654522 32.000000 -77.978516
v 31.183851 -32.000000 -75.284470
v 31.183851 32.000000 -75.284470
v 38.412861 -32.000000 -71.865402
v 38.412861 32.000000 -71.865402
v 45.271935 -32.000000 -67.754234
v 45.271935 32.000000 -67.754234
v 51.695011 -32.000000 -62.990559
v 51.695011 32.000000 -62.990559
v 57.620239 -32.000000 -57.620247
v 57.620239 32.000000 -57.620247
v 62.990555 -32.000000 -51.695019
v 62.990555 32.000000 -51.695019
v 67.754234 -32.000000 -45.271938
v 67.754234 32.000000 -45.271938
v 71.865402 -32.000000 -38.412865
v 71.865402 32.000000 -38.412865
v 75.284470 -32.000000 -31.183849
v 75.284470 32.000000 -31.183849
v 77.978516 -32.000000 -23.654518
v 77.978516 32.000000 -23.654518
v 79.921577 -32.000000 -15.897382
v 79.921577 32.000000 -15.897382
v 81.094940 -32.000000 -7.987144
v 81.094940 32.000000 -7.987144
v 81.487328 -32.000000 0.000013
v 81.487328 32.000000 0.000013
v 81.094940 -32.000000 7.987171
v 81.094940 32.000000 7.987171
v 79.921570 -32.000000 15.897408
v 79.921570 32.000000 15.897408
v 77.978500 -32.000000 23.654545
v 77.978500 32.000000 23.654545
v 75.284462 -32.000000 31.183874
v 75.284462 32.000000 31.183874
v 71.865395 -32.000000 38.412884
v 71.865395 32.000000 38.412884
v 67.754219 -32.000000 45.271957
v 67.754219 32.000000 45.271957
v 62.990536 -32.000000 51.695042
v 62.990536 32.000000 51.695042
v 57.620216 -32.000000 57.620270
v 57.620216 32.000000 57.620270
v 51.694977 -32.000000 62.990585
v 51.694977 32.000000 62.990585
v 45.271896 -32.000000 67.754265
v 45.271896 32.000000 67.754265
v 38.412819 -32.000000 71.865425
v 38.412819 32.000000 71.865425
v 31.183802 -32.000000 75.284492
v 31.183802 32.000000 75.284492
v 23.654470 -32.000000 77.978523
v 23.654470 32.000000 77.978523
v 15.897331 -32.000000 79.921585
v 15.897331 32.000000 79.921585
v 7.987093 -32.000000 81.094948
v 7.987093 32.000000 81.094948
v -0.000065 -32.000000 81.487328
v -0.000065 32.000000 81.487328
v -7.987223 -32.000000 81.094940
v -7.987223 32.000000 81.094940
v -15.897460 -32.000000 79.921562
v -15.897460 32.000000 79.921562
v -23.654594 -32.000000 77.978485
v -23.654594 32.000000 77.978485
v -31.183922 -32.000000 75.284439
v -31.183922 32.000000 75.284439
v -38.412930 -32.000000 71.865372
v -38.412930 32.000000 71.865372
v -45.272003 -32.000000 67.754189
v -45.272003 32.000000 67.754189
v -51.695080 -32.000000 62.990501
v -51.695080 32.000000 62.990501
v -57.620308 -32.000000 57.620178
v -57.620308 32.000000 57.620178
v -62.990604 -32.000000 51.694954
v -62.990604 32.000000 51.694954
v -67.754272 -32.000000 45.271885
v -67.754272 32.000000 45.271885
v -71.865425 -32.000000 38.412823
v -71.865425 32.000000 38.412823
v -75.284485 -32.000000 31.183825
v -75.284485 32.000000 31.183825
v -77.978516 -32.000000 23.654512
v -77.978516 32.000000 23.654512
v -79.921570 -32.000000 15.897394
v -79.921570 32.000000 15.897394
v -81.094940 -32.000000 7.987176
v -81.094940 32.000000 7.987176
v -81.487328 -32.000000 0.000038
v -81.487328 32.000000 0.000038
v -81.094948 -32.000000 -7.987101
v -81.094948 32.000000 -7.987101
v -79.921585 -32.000000 -15.897320
v -79.921585 32.000000 -15.897320
v -77.978539 -32.000000 -23.654438
v -77.978539 32.000000 -23.654438
v -75.284515 -32.000000 -31.183756
v -75.284515 32.000000 -31.183756
v -71.865463 -32.000000 -38.412758
v -71.865463 32.000000 -38.412758
v -67.754311 -32.000000 -45.271824
v -67.754311 32.000000 -45.271824
v -62.990650 -32.000000 -51.694897
v -62.990650 32.000000 -51.694897
v -57.620361 -32.000000 -57.620125
v -57.620361 32.000000 -57.620125
v -51.695152 -32.000000 -62.990437
v -51.695152 32.000000 -62.990437
v -45.272099 -32.000000 -67.754120
v -45.272099 32.000000 -67.754120
v -38.413052 -32.000000 -71.865311
v -38.413052 32.000000 -71.865311
v -31.184063 -32.000000 -75.284386
v -31.184063 32.000000 -75.284386
v -23.654760 -32.000000 -77.978439
v -23.654760 32.000000 -77.978439
v -15.897648 -32.000000 -79.921524
v -15.897648 32.000000 -79.921524
v -7.987434 -32.000000 -81.094917
v -7.987434 32.000000 -81.094917
vt 0.500001 0.000007
vt 0.500001 0.999990
vt 0.484376 0.999990
vt 0.484376 0.000007
vt 0.468752 0.999990
vt 0.468752 0.000007
vt 0.453127 0.999990
vt 0.453127 0.000007
vt 0.437502 0.999990
vt 0.437502 0.000007
vt 0.421877 0.999990
vt 0.421877 0.000007
vt 0.406252 0.999990
vt 0.406252 0.000007
vt 0.390627 0.999990
vt 0.390627 0.000007
vt 0.375003 0.999990
vt 0.375002 0.000007
vt 0.359378 0.999990
vt 0.359378 0.000007
vt 0.343753 0.999990
vt 0.343753 0.000007
vt 0.328128 0.999990
vt 0.328128 0.000007
vt 0.312503 0.999990
vt 0.312503 0.000007
vt 0.296878 0.999990
vt 0.296878 0.000007
vt 0.281254 0.999990
vt 0.281253 0.000007
vt 0.265629 0.999990
vt 0.265628 0.000007
vt 0.250004 0.999990
vt 0.250004 0.000007
vt 0.234379 0.999990
vt 0.234379 0.000007
vt 0.218754 0.999990
vt 0.218754 0.000007
vt 0.203129 0.999990
vt 0.203129 0.000007
vt 0.187504 0.999990
vt 0.187504 0.000007
vt 0.171880 0.999990
vt 0.171879 0.000007
vt 0.156255 0.999990
vt 0.156254 0.000007
vt 0.140630 0.999990
vt 0.140629 0.000007
vt 0.125005 0.999990
vt 0.125004 0.000007
vt 0.109380 0.999990
vt 0.109379 0.000007
vt 0.093755 0.999990
vt 0.093755 0.000007
vt 0.078130 0.999990
vt 0.078130 0.000007
vt 0.062506 0.999990
vt 0.062505 0.000007
vt 0.046881 0.999990
vt 0.046880 0.000007
vt 0.031256 0.999990
vt 0.031255 0.000007
vt 0.015631 0.999990
vt 0.015630 0.000007
vt 0.000006 0.999990
vt 0.000005 0.000007
vt 0.999995 0.000007
vt 0.999995 0.999990
vt 0.984370 0.999990
vt 0.984370 0.000007
vt 0.968745 0.999990
vt 0.968745 0.000007
vt 0.953120 0.999990
vt 0.953120 0.000007
vt 0.937495 0.999990
vt 0.937496 0.000007
vt 0.921871 0.999990
vt 0.921871 0.000007
vt 0.906246 0.999990
vt 0.906246 0.000007
vt 0.890621 0.999990
vt 0.890621 0.000007
vt 0.874996 0.999990
vt 0.874996 0.000007
vt 0.859371 0.999990
vt 0.859372 0.000007
vt 0.843747 0.999990
vt 0.843747 0.000007
vt 0.828122 0.999990
vt 0.828122 0.000007
vt 0.812497 0.999990
vt 0.812497 0.000007
vt 0.796872 0.999990
vt 0.796873 0.000007
vt 0.781248 0.999990
vt 0.781248 0.000007
vt 0.765623 0.999990
vt 0.765623 0.000007
vt 0.749998 0.999990
vt 0.749998 0.000007
vt 0.734373 0.999990
vt 0.734374 0.000007
vt 0.718749 0.999990
vt 0.718749 0.000007
vt 0.703124 0.999990
vt 0.703124 0.000007
vt 0.687499 0.999990
vt 0.687499 0.000007
vt 0.671874 0.999990
vt 0.671875 0.000007
vt 0.656250 0.999990
vt 0.656250 0.000007
vt 0.640625 0.999990
vt 0.640625 0.000007
vt 0.625000 0.999990
vt 0.625000 0.000007
vt 0.609375 0.999990
vt 0.609375 0.000007
vt 0.593750 0.999990
vt 0.593751 0.000007
vt 0.578126 0.999990
vt 0.578126 0.000007
vt 0.562501 0.999990
vt 0.562501 0.000007
vt 0.546876 0.999990
vt 0.546876 0.000007
vt 0.531251 0.999990
vt 0.531251 0.000007
vt 0.515627 0.999990
vt 0.515627 0.000007
vn 0.0000 0.0000 -1.0000
vn 0.0980 0.0000 -0.9952
vn 0.1951 0.0000 -0.9808
vn 0.2903 0.0000 -0.9569
vn 0.3827 0.0000 -0.9239
vn 0.4714 0.0000 -0.8819
vn 0.5556 0.0000 -0.8314
vn 0.6344 0.0000 -0.7730
vn 0.7071 0.0000 -0.7071
vn 0.7730 0.0000 -0.6344
vn 0.8314 0.0000 -0.5556
vn 0.8819 0.0000 -0.4714
vn 0.9239 0.0000 -0.3827
vn 0.9569 0.0000 -0.2903
vn 0.9808 0.0000 -0.1951
vn 0.9952 0.0000 -0.0980
vn 1.0000 0.0000 0.0000
vn 0.9952 0.0000 0.0980
vn 0.9808 0.0000 0.1951
vn 0.9569 0.0000 0.2903
vn 0.9239 0.0000 0.3827
vn 0.8819 0.0000 0.4714
vn 0.8314 0.0000 0.5556
vn 0.7730 0.0000 0.6344
vn 0.7071 0.0000 0.7071
vn 0.6344 0.0000 0.7730
vn 0.5556 0.0000 0.8314
vn 0.4714 0.0000 0.8819
vn 0.3827 0.0000 0.9239
vn 0.2903 0.0000 0.9569
vn 0.1951 0.0000 0.9808
vn 0.0980 0.0000 0.9952
vn 0.0000 0.0000 1.0000
vn -0.0980 0.0000 0.9952
vn -0.1951 0.0000 0.9808
vn -0.2903 0.0000 0.9569
vn -0.3827 0.0000 0.9239
vn -0.4714 0.0000 0.8819
vn -0.5556 0.0000 0.8314
vn -0.6344 0.0000 0.7730
vn -0.7071 0.0000 0.7071
vn -0.7730 0.0000 0.6344
vn -0.8314 0.0000 0.5556
vn -0.8819 0.0000 0.4714
vn -0.9239 0.0000 0.3827
vn -0.9569 0.0000 0.2903
vn -0.9808 0.0000 0.1951
vn -0.9952 0.0000 0.0980
vn -1.0000 0.0000 0.0000
vn -0.9952 0.0000 -0.0980
vn -0.9808 0.0000 -0.1951
vn -0.9569 0.0000 -0.2903
vn -0.9239 0.0000 -0.3827
vn -0.8819 0.0000 -0.4714
vn -0.8314 0.0000 -0.5556
vn -0.7730 0.0000 -0.6344
vn -0.7071 0.0000 -0.7071
vn -0.6344 0.0000 -0.7730
vn -0.5556 0.0000 -0.8314
vn -0.4714 0.0000 -0.8819
vn -0.3827 0.0000 -0.9239
vn -0.2903 0.0000 -0.9569
vn -0.1951 0.0000 -0.9808
vn -0.0980 0.0000 -0.9952
usemtl None
s 1
f 1/1/1 2/2/1 4/3/2 3/4/2
f 3/4/2 4/3/2 6/5/3 5/6/3
f 5/6/3 6/5/3 8/7/4 7/8/4
f 7/8/4 8/7/4 10/9/5 9/10/5
f 9/10/5 10/9/5 12/11/6 11/12/6
f 11/12/6 12/11/6 14/13/7 13/14/7
f 13/14/7 14/13/7 16/15/8 15/16/8
f 15/16/8 16/15/8 18/17/9 17/18/9
f 17/18/9 18/17/9 20/19/10 19/20/10
f 19/20/10 20/19/10 22/21/11 21/22/11
f 21/22/11 22/21/11 24/23/12 23/24/12
f 23/24/12 24/23/12 26/25/13 25/26/13
f 25/26/13 26/25/13 28/27/14 27/28/14
f 27/28/14 28/27/14 30/29/15 29/30/15
f 29/30/15 30/29/15 32/31/16 31/32/16
f 31/32/16 32/31/16 34/33/17 33/34/17
f 33/34/17 34/33/17 36/35/18 35/36/18
f 35/36/18 36/35/18 38/37/19 37/38/19
f 37/38/19 38/37/19 40/39/20 39/40/20
f 39/40/20 40/39/20 42/41/21 41/42/21
f 41/42/21 42/41/21 44/43/22 43/44/22
f 43/44/22 44/43/22 46/45/23 45/46/23
f 45/46/23 46/45/23 48/47/24 47/48/24
f 47/48/24 48/47/24 50/49/25 49/50/25
f 49/50/25 50/49/25 52/51/26 51/52/26
f 51/52/26 52/51/26 54/53/27 53/54/27
f 53/54/27 54/53/27 56/55/28 55/56/28
f 55/56/28 56/55/28 58/57/29 57/58/29
f 57/58/29 58/57/29 60/59/30 59/60/30
f 59/60/30 60/59/30 62/61/31 61/62/31
f 61/62/31 62/61/31 64/63/32 63/64/32
f 63/64/32 64/63/32 66/65/33 65/66/33
f 65/67/33 66/68/33 68/69/34 67/70/34
f 67/70/34 68/69/34 70/71/35 69/72/35
f 69/72/35 70/71/35 72/73/36 71/74/36
f 71/74/36 72/73/36 74/75/37 73/76/37
f 73/76/37 74/75/37 76/77/38 75/78/38
f 75/78/38 76/77/38 78/79/39 77/80/39
f 77/80/39 78/79/39 80/81/40 79/82/40
f 79/82/40 80/81/40 82/83/41 81/84/41
f 81/84/41 82/83/41 84/85/42 83/86/42
f 83/86/42 84/85/42 86/87/43 85/88/43
f 85/88/43 86/87/43 88/89/44 87/90/44
f 87/90/44 88/89/44 90/91/45 89/92/45
f 89/92/45 90/91/45 92/93/46 91/94/46
f 91/94/46 92/93/46 94/95/47 93/96/47
f 93/96/47 94/95/47 96/97/48 95/98/48
f 95/98/48 96/97/48 98/99/49 97/100/49
f 97/100/49 98/99/49 100/101/50 99/102/50
f 99/102/50 100/101/50 102/103/51 101/104/51
f 101/104/51 102/103/51 104/105/52 103/106/52
f 103/106/52 104/105/52 106/107/53 105/108/53
f 105/108/53 106/107/53 108/109/54 107/110/54
f 107/110/54 108/109/54 110/111/55 109/112/55
f 109/112/55 110/111/55 112/113/56 111/114/56
f 111/114/56 112/113/56 114/115/57 113/116/57
f 113/116/57 114/115/57 116/117/58 115/118/58
f 115/118/58 116/117/58 118/119/59 117/120/59
f 117/120/59 118/119/59 120/121/60 119/122/60
f 119/122/60 120/121/60 122/123/61 121/124/61
f 121/124/61 122/123/61 124/125/62 123/126/62
f 123/126/62 124/125/62 126/127/63 125/128/63
f 125/128/63 126/127/63 128/129/64 127/130/64
f 127/130/64 128/129/64 2/2/1 1/1/1
